<?xml version="1.0" encoding="utf-8"?>
<!-- Generator: Adobe Illustrator 22.0.1, SVG Export Plug-In . SVG Version: 6.00 Build 0)  -->
<svg version="1.1" xmlns="http://www.w3.org/2000/svg" xmlns:xlink="http://www.w3.org/1999/xlink" x="0px" y="0px"
	 viewBox="0 0 250 250" style="enable-background:new 0 0 250 250;" xml:space="preserve">
<style type="text/css">
	.st0{fill:#F16B8C;}
	.st1{fill:none;stroke:#FFFFFF;stroke-width:14;stroke-linecap:round;stroke-linejoin:round;stroke-miterlimit:10;}
	.st2{fill:#53225C;}
	.st3{display:none;}
	.st4{fill:none;stroke:#FFFFFF;stroke-width:4;stroke-miterlimit:10;}
	.st5{fill:none;stroke:#FFFFFF;stroke-width:3;stroke-miterlimit:10;}
	.st6{fill:none;stroke:#FFFFFF;stroke-width:7;stroke-miterlimit:10;}
	.st7{fill:#FFFFFF;}
</style>
<g id="icon_x5F_email">
	<g id="email">
	</g>
</g>
<g id="icon_x5F_vsco">
	<circle id="circle_1_" class="st2" cx="125" cy="125" r="115.8"/>
	<g id="yM8gmt.tif" class="st3">
		
			<image style="display:inline;overflow:visible;" width="614" height="614" id="Layer_0_1_" xlink:href="416D51A29BC35491.png"  transform="matrix(0.2511 0 0 0.2511 47.717 47.717)">
		</image>
	</g>
	<g id="vsco">
		<circle class="st4" cx="125" cy="125.2" r="71.6"/>
		<circle class="st4" cx="125.1" cy="125.2" r="54.9"/>
		<circle class="st4" cx="125.1" cy="125.2" r="40.1"/>
		<g id="lines">
			<line class="st5" x1="125" y1="53.5" x2="125" y2="85.2"/>
			<line class="st5" x1="125.1" y1="165.3" x2="125.1" y2="196.8"/>
			<line class="st5" x1="142.6" y1="55.7" x2="138.4" y2="71.9"/>
			<line class="st5" x1="158.4" y1="61.8" x2="150.8" y2="76.6"/>
			<line class="st5" x1="162" y1="84.5" x2="172.2" y2="72.9"/>
			<line class="st5" x1="170.6" y1="94.4" x2="183.7" y2="85.2"/>
			<line class="st5" x1="177.1" y1="105.6" x2="190.8" y2="100.5"/>
			<line class="st5" x1="180" y1="118.5" x2="195.1" y2="116.7"/>
			<line class="st5" x1="180" y1="132" x2="196.1" y2="134.1"/>
			<line class="st5" x1="177.1" y1="144.9" x2="191.8" y2="151"/>
			<line class="st5" x1="170.6" y1="157" x2="183.7" y2="166.3"/>
			<line class="st5" x1="161.3" y1="166.5" x2="172.4" y2="178.9"/>
			<line class="st5" x1="150.6" y1="173.8" x2="158.5" y2="188.5"/>
			<line class="st5" x1="142.6" y1="161.6" x2="148.3" y2="173.3"/>
			<line class="st5" x1="156.5" y1="150.1" x2="167.6" y2="158.9"/>
			<line class="st5" x1="164.3" y1="133.5" x2="177.9" y2="137"/>
			<line class="st5" x1="164.3" y1="115.9" x2="178.7" y2="113"/>
			<line class="st5" x1="138.1" y1="178.9" x2="142.6" y2="194.6"/>
			<line class="st5" x1="111.8" y1="178.9" x2="108.3" y2="194.6"/>
			<line class="st5" x1="99.1" y1="173.8" x2="92.3" y2="187.8"/>
			<line class="st5" x1="101.8" y1="173.3" x2="107.3" y2="161.6"/>
			<line class="st5" x1="77.6" y1="178.9" x2="88.3" y2="166.5"/>
			<line class="st5" x1="66.6" y1="165.3" x2="79.1" y2="157"/>
			<line class="st5" x1="82.3" y1="158.9" x2="93.2" y2="150.1"/>
			<line class="st5" x1="58.5" y1="150.1" x2="72.8" y2="144.9"/>
			<line class="st5" x1="72" y1="137" x2="85.1" y2="134.1"/>
			<line class="st5" x1="53.9" y1="134.1" x2="70.2" y2="132"/>
			<line class="st5" x1="53.9" y1="116.3" x2="69.5" y2="118.5"/>
			<line class="st5" x1="58.5" y1="99.5" x2="73.8" y2="105.6"/>
			<line class="st5" x1="71.5" y1="113" x2="85.1" y2="115.9"/>
			<line class="st5" x1="82.4" y1="90.6" x2="93.2" y2="99.5"/>
			<line class="st5" x1="66" y1="84.5" x2="79.1" y2="93.3"/>
			<line class="st5" x1="101.3" y1="75.7" x2="107.2" y2="87.8"/>
			<line class="st5" x1="77.7" y1="71.4" x2="87.8" y2="83.1"/>
			<line class="st5" x1="91.6" y1="61.8" x2="99.2" y2="75.7"/>
			<line class="st5" x1="108" y1="55.7" x2="111.6" y2="70.2"/>
			<line class="st5" x1="143.1" y1="87.8" x2="148.7" y2="76.6"/>
			<line class="st5" x1="157" y1="99.5" x2="167.1" y2="91.2"/>
		</g>
	</g>
</g>
<g id="icon_x5F_instagram">
	<g id="Layer_7">
	</g>
</g>
<g id="icon_x5F_linked">
	<g id="logo">
		<g id="Layer_11">
		</g>
		<g id="Layer_10">
		</g>
	</g>
</g>
</svg>
